<svg width="183" height="60" viewBox="0 0 183 60" fill="none" xmlns="http://www.w3.org/2000/svg">
<rect width="183" height="59.832" rx="7.89" fill="#FBFCFF"/>
<path d="M64.4039 38V22.7885H69.2325V25.976C69.4849 24.882 70.0004 24.0404 70.7789 23.4513C71.5784 22.8411 72.462 22.5361 73.4298 22.5361C73.9348 22.5361 74.3556 22.5781 74.6922 22.6623V27.1437C74.1241 27.0806 73.6402 27.049 73.2405 27.049C70.5685 27.049 69.2325 28.7427 69.2325 32.13V38H64.4039ZM88.6815 36.2011C87.1666 37.716 85.1258 38.4734 82.559 38.4734C79.9922 38.4734 77.9409 37.716 76.405 36.2011C74.8691 34.6863 74.1012 32.7507 74.1012 30.3943C74.1012 28.0379 74.8691 26.1128 76.405 24.619C77.9409 23.1041 79.9922 22.3467 82.559 22.3467C85.1258 22.3467 87.1666 23.1041 88.6815 24.619C90.2174 26.1128 90.9853 28.0379 90.9853 30.3943C90.9853 32.7507 90.2174 34.6863 88.6815 36.2011ZM82.559 34.3707C83.6741 34.3707 84.5578 34.0025 85.21 33.2661C85.8622 32.5298 86.1883 31.5725 86.1883 30.3943C86.1883 29.2161 85.8622 28.2588 85.21 27.5224C84.5578 26.786 83.6741 26.4178 82.559 26.4178C81.4229 26.4178 80.5287 26.786 79.8765 27.5224C79.2453 28.2588 78.9297 29.2161 78.9297 30.3943C78.9297 31.5725 79.2453 32.5298 79.8765 33.2661C80.5287 34.0025 81.4229 34.3707 82.559 34.3707ZM99.3346 38.4734C96.852 38.4734 94.8743 37.737 93.4015 36.2643C91.9288 34.7705 91.1924 32.8138 91.1924 30.3943C91.1924 27.9747 91.9288 26.0286 93.4015 24.5558C94.8743 23.0831 96.852 22.3467 99.3346 22.3467C101.586 22.3467 103.416 22.9043 104.826 24.0193C106.236 25.1344 107.035 26.6493 107.224 28.5638H102.396C102.038 27.1332 101.028 26.4178 99.3662 26.4178C98.3142 26.4178 97.4937 26.765 96.9046 27.4593C96.3155 28.1536 96.0209 29.1319 96.0209 30.3943C96.0209 31.6566 96.3155 32.635 96.9046 33.3293C97.4937 34.0236 98.3142 34.3707 99.3662 34.3707C101.028 34.3707 102.038 33.6974 102.396 32.3509H107.224C107.035 34.2234 106.236 35.7172 104.826 36.8323C103.416 37.9264 101.586 38.4734 99.3346 38.4734ZM123.655 38H117.753L112.925 31.4042V38H108.096V15.9087H112.925V29.1319L117.879 22.7885H123.56L117.501 29.984L123.655 38ZM137.681 29.6053C137.681 30.2365 137.639 30.9413 137.554 31.7197H126.319C126.361 32.7086 126.698 33.4765 127.329 34.0236C127.96 34.5706 128.813 34.8441 129.886 34.8441C131.358 34.8441 132.305 34.3707 132.726 33.4239H137.46C137.228 34.9177 136.408 36.138 134.998 37.0848C133.609 38.0105 131.905 38.4734 129.886 38.4734C127.298 38.4734 125.257 37.758 123.763 36.3274C122.269 34.8967 121.522 32.919 121.522 30.3943C121.522 27.9116 122.269 25.955 123.763 24.5243C125.257 23.0726 127.245 22.3467 129.728 22.3467C132.084 22.3467 133.999 23.02 135.471 24.3665C136.944 25.713 137.681 27.4593 137.681 29.6053ZM126.319 28.7216H132.915C132.894 27.7117 132.61 26.9333 132.063 26.3863C131.516 25.8392 130.727 25.5657 129.696 25.5657C128.665 25.5657 127.845 25.8603 127.235 26.4494C126.645 27.0174 126.34 27.7749 126.319 28.7216ZM146.472 34.2445C147.145 34.2445 147.703 34.2129 148.145 34.1498V38C147.219 38.1683 146.146 38.2525 144.926 38.2525C144.379 38.2525 143.895 38.2209 143.474 38.1578C143.053 38.0947 142.58 37.9579 142.054 37.7475C141.528 37.5161 141.096 37.211 140.76 36.8323C140.423 36.4536 140.129 35.9066 139.876 35.1912C139.645 34.4759 139.529 33.6343 139.529 32.6665V26.6072H137.131V22.7885H139.529V18.2756H144.358V22.7885H147.798V26.6072H144.358V31.6566C144.358 32.6876 144.536 33.3819 144.894 33.7395C145.252 34.0762 145.778 34.2445 146.472 34.2445ZM167.84 22.7885H172.637V44.3118H167.808V36.6745H167.84V35.854C167.419 36.6114 166.767 37.2321 165.883 37.716C165.021 38.1788 164.063 38.4103 163.011 38.4103C160.802 38.4103 159.056 37.6634 157.773 36.1696C156.489 34.6758 155.848 32.7507 155.848 30.3943C155.848 28.0799 156.51 26.1654 157.836 24.6505C159.161 23.1357 160.907 22.3783 163.075 22.3783C164.148 22.3783 165.105 22.6097 165.946 23.0726C166.788 23.5354 167.419 24.1666 167.84 24.9661V22.7885ZM164.4 34.4023C165.557 34.4023 166.451 34.0236 167.083 33.2661C167.714 32.5087 168.029 31.5514 168.029 30.3943C168.029 29.2581 167.714 28.3114 167.083 27.554C166.451 26.7965 165.557 26.4178 164.4 26.4178C163.306 26.4178 162.422 26.786 161.749 27.5224C161.097 28.2588 160.771 29.2161 160.771 30.3943C160.771 31.5725 161.097 32.5403 161.749 33.2977C162.422 34.0341 163.306 34.4023 164.4 34.4023Z" fill="#0D114F"/>
<path d="M154.158 37.4004C153.569 38.0105 152.833 38.3156 151.949 38.3156C151.066 38.3156 150.319 38.0105 149.709 37.4004C149.119 36.7902 148.825 36.0644 148.825 35.2228C148.825 34.3602 149.119 33.6343 149.709 33.0452C150.319 32.4351 151.066 32.13 151.949 32.13C152.833 32.13 153.569 32.4351 154.158 33.0452C154.769 33.6343 155.074 34.3602 155.074 35.2228C155.074 36.0644 154.769 36.7902 154.158 37.4004Z" fill="url(#paint0_linear)"/>
<rect x="8" y="8" width="43.832" height="43.832" rx="7.88976" fill="url(#paint1_linear)"/>
<g filter="url(#filter0_di)">
<path d="M41.258 40.4131H37.3488C37.1853 40.4131 37.0508 40.2854 37.0363 40.1226C37.0317 40.0711 37.0268 40.0211 37.0215 39.9726C36.7974 37.9298 34.5983 36.1753 32.5583 36.4238C31.0693 36.6052 29.8351 37.7293 28.3445 37.8976C27.3393 38.0111 26.4621 37.9594 25.4596 37.7629C24.5809 37.5908 23.7327 37.2757 22.952 36.8372C21.1132 35.8044 20.126 34.741 19.2107 33.1387C18.681 32.2114 18.303 31.1958 18.1655 30.1368C18.0517 29.2603 18.0589 28.4879 18.1545 27.6373C18.3004 26.3379 18.7168 25.0732 19.3964 23.956C20.3505 22.3877 21.3816 21.4126 23.0616 20.4997C23.7732 20.1131 24.5387 19.8305 25.3297 19.6568C27.3324 19.2169 28.629 19.3458 30.5759 19.956C31.6591 20.2955 32.8356 21.023 33.8362 21.9723C36.0243 24.0482 36.1912 27.3058 36.2465 30.3215C36.2516 30.601 35.9961 30.8125 35.721 30.7627C34.3697 30.5184 33.3982 30.4987 32.0703 30.7098C31.7143 30.7664 31.4215 30.398 31.5175 30.0506C31.5592 29.8998 31.5918 29.7518 31.6163 29.6059C32.0088 27.2711 30.4111 24.606 28.0548 24.3763C26.718 24.246 25.3944 24.7918 24.4139 25.8864C23.8287 26.4381 23.505 27.3034 23.4029 28.2262C23.1383 30.6173 25.0941 32.9295 27.4971 33.0439C27.9556 33.0657 28.3982 32.999 28.8506 32.8457C30.276 32.3625 31.6654 31.6404 33.1662 31.7534C37.6813 32.0934 40.8523 34.1289 41.6867 39.9218C41.7241 40.1814 41.5203 40.4131 41.258 40.4131Z" fill="#FAFAFA"/>
</g>
<defs>
<filter id="filter0_di" x="16.4491" y="19.3964" width="26.8744" height="24.2814" filterUnits="userSpaceOnUse" color-interpolation-filters="sRGB">
<feFlood flood-opacity="0" result="BackgroundImageFix"/>
<feColorMatrix in="SourceAlpha" type="matrix" values="0 0 0 0 0 0 0 0 0 0 0 0 0 0 0 0 0 0 127 0"/>
<feOffset dy="1.63237"/>
<feGaussianBlur stdDeviation="0.816183"/>
<feColorMatrix type="matrix" values="0 0 0 0 0 0 0 0 0 0 0 0 0 0 0 0 0 0 0.07 0"/>
<feBlend mode="normal" in2="BackgroundImageFix" result="effect1_dropShadow"/>
<feBlend mode="normal" in="SourceGraphic" in2="effect1_dropShadow" result="shape"/>
<feColorMatrix in="SourceAlpha" type="matrix" values="0 0 0 0 0 0 0 0 0 0 0 0 0 0 0 0 0 0 127 0" result="hardAlpha"/>
<feOffset dy="1.63237"/>
<feGaussianBlur stdDeviation="1.02023"/>
<feComposite in2="hardAlpha" operator="arithmetic" k2="-1" k3="1"/>
<feColorMatrix type="matrix" values="0 0 0 0 0.219608 0 0 0 0 0.533333 0 0 0 0 1 0 0 0 0.13 0"/>
<feBlend mode="normal" in2="shape" result="effect2_innerShadow"/>
</filter>
<linearGradient id="paint0_linear" x1="197.169" y1="-51.0291" x2="185.57" y2="62.1337" gradientUnits="userSpaceOnUse">
<stop stop-color="#5498FF"/>
<stop offset="0.515625" stop-color="#428EFF"/>
<stop offset="1" stop-color="#297FFF"/>
</linearGradient>
<linearGradient id="paint1_linear" x1="60.463" y1="-58.3077" x2="27.6129" y2="56.5381" gradientUnits="userSpaceOnUse">
<stop stop-color="#5498FF"/>
<stop offset="0.515625" stop-color="#428EFF"/>
<stop offset="1" stop-color="#297FFF"/>
</linearGradient>
</defs>
</svg>
